<svg id="Layer_35" enable-background="new 0 0 64 64" height="128" viewBox="0 0 64 64" width="128" xmlns="http://www.w3.org/2000/svg"><path d="m52.74 48.21-2.61-1.07-3.96-1.62s2.83 10.48-3.17 10.48c-5 0-7-2-7-2s-2 2-7 2c-2.12 0-3.14-1.31-3.57-3h-12.4c-1.92 2.54-3.03 5.68-3.03 9h10 16 16 10c0-6.05-3.66-11.5-9.26-13.79z" fill="#b4dd7f"/><path d="m46.17 45.52s2.83 10.48-3.17 10.48c-5 0-7-2-7-2l5.25-7 2-2.67z" fill="#ff826e"/><path d="m26 53c2.75 0 5.18-1.39 6.62-3.51l3.38 4.51s-2 2-7 2c-2.12 0-3.14-1.31-3.57-3z" fill="#ff826e"/><path d="m41.25 47-5.25 7-3.38-4.51c.51-.75.89-1.59 1.13-2.49h.25z" fill="#ccd1d9"/><path d="m52 18v24c0 1.96-.7 3.75-1.87 5.14l-3.96-1.62-2.92-1.19-.76-.31c-1.51-.62-2.49-2.08-2.49-3.71v-1.24c4.91-3.18 8-8.68 8-14.72v-4.35c-5.27 0-10.49-1.11-15.31-3.25l-1.69-.75-.89.26c-3.62 1.03-6.11 4.33-6.11 8.09 0 4.89 2.03 9.41 5.4 12.65h-9.4v-19c0-8.84 7.16-16 16-16 4.42 0 8.42 1.79 11.32 4.68 2.89 2.9 4.68 6.9 4.68 11.32z" fill="#fcd770"/><path d="m32.62 49.49c-1.44 2.12-3.87 3.51-6.62 3.51h-.57-12.4-3.03c-4.42 0-8-3.58-8-8 0-2.21.9-4.21 2.34-5.66 1.45-1.44 3.45-2.34 5.66-2.34h10 9.4 4.6v3.18 4.82c0 .69-.09 1.36-.25 2-.24.9-.62 1.74-1.13 2.49z" fill="#e6e9ed"/><g fill="#fcd770"><circle cx="26" cy="45" r="2"/><circle cx="18" cy="45" r="2"/><circle cx="10" cy="45" r="2"/></g><path d="m43.25 44.33-2 2.67h-7.25-.25c.16-.64.25-1.31.25-2v-4.82c.65.31 1.31.59 2 .82 1.43-.48 2.77-1.13 4-1.93v1.24c0 1.63.98 3.09 2.49 3.71z" fill="#f0d0b4"/><path d="m34 37h-4.6c-3.37-3.24-5.4-7.76-5.4-12.65 0-3.76 2.49-7.06 6.11-8.09l.89-.26 1.69.75c4.82 2.14 10.04 3.25 15.31 3.25v4.35c0 6.04-3.09 11.54-8 14.72-1.23.8-2.57 1.45-4 1.93-.69-.23-1.35-.51-2-.82z" fill="#f0d0b4"/><circle cx="30" cy="24" r="1"/><circle cx="42" cy="24" r="1"/><path d="m40 32h-2c0 1.103-.897 2-2 2s-2-.897-2-2h-2c0 2.206 1.794 4 4 4s4-1.794 4-4z"/><path d="m46.962 17.083 1.994-.165c-.061-.729-.184-1.458-.365-2.166l-1.938.497c.155.6.258 1.216.309 1.834z"/><path d="m46.003 13.417 1.818-.834c-2.115-4.607-6.755-7.583-11.821-7.583v2c4.287 0 8.214 2.519 10.003 6.417z"/><path d="m18 42c-1.654 0-3 1.346-3 3s1.346 3 3 3 3-1.346 3-3-1.346-3-3-3zm0 4c-.552 0-1-.449-1-1s.448-1 1-1 1 .449 1 1-.448 1-1 1z"/><path d="m10 42c-1.654 0-3 1.346-3 3s1.346 3 3 3 3-1.346 3-3-1.346-3-3-3zm0 4c-.552 0-1-.449-1-1s.448-1 1-1 1 .449 1 1-.448 1-1 1z"/><path d="m29 45c0-1.654-1.346-3-3-3s-3 1.346-3 3 1.346 3 3 3 3-1.346 3-3zm-4 0c0-.551.448-1 1-1s1 .449 1 1-.448 1-1 1-1-.449-1-1z"/><path d="m53.123 47.289-1.452-.594c.859-1.407 1.329-3.031 1.329-4.695v-24c0-9.374-7.626-17-17-17s-17 7.626-17 17v18h-9c-4.963 0-9 4.038-9 9s4.037 9 9 9h1.179c-1.423 2.426-2.179 5.154-2.179 8v1h54v-1c0-6.483-3.877-12.257-9.877-14.711zm-32.123-29.289c0-8.271 6.729-15 15-15s15 6.729 15 15v24c0 1.405-.447 2.763-1.229 3.917l-6.906-2.826c-1.134-.463-1.865-1.553-1.865-2.777v-.718c4.921-3.401 8-9.039 8-15.245v-5.351h-1c-5.167 0-10.182-1.064-14.904-3.163l-2.021-.899-1.242.355c-4.023 1.15-6.833 4.874-6.833 9.058 0 4.236 1.501 8.364 4.152 11.649h-6.152zm23.979 36.132c-.454.592-1.083.868-1.979.868-2.901 0-4.684-.72-5.581-1.225l6.169-8.226 1.731.708c.451 1.949 1.038 6.079-.34 7.875zm-15.148-18.132c-3.068-3.091-4.831-7.308-4.831-11.649 0-3.295 2.213-6.229 5.381-7.134l.545-.155 1.357.604c4.675 2.077 9.621 3.193 14.717 3.322v3.364c0 7.022-4.406 13.245-10.999 15.591-.319-.116-.655-.256-1.001-.408v-3.535zm11.866 8.738-.947 1.262h-5.809c.037-.329.059-.662.059-1v-3.306c.23.089.461.181.684.255l.316.105.316-.105c.947-.316 1.855-.702 2.719-1.153.163 1.687 1.157 3.16 2.662 3.942zm-7.222 3.262h4.775l-3.25 4.333-2.176-2.901c.258-.454.474-.933.651-1.432zm-1.89 3.114 1.995 2.66c-.9.507-2.682 1.226-5.58 1.226-.706 0-1.521-.149-2.1-1.046 2.239-.223 4.233-1.276 5.685-2.84zm-29.585-6.114c0-3.86 3.141-7 7-7h23v7c0 3.86-3.141 7-7 7h-16c-3.859 0-7-3.14-7-7zm10.552 9h11.151c.739 1.942 2.238 3 4.297 3 2.81 0 4.76-.606 6-1.195v5.195h-14v-5h-2v5h-7.965c.179-2.523 1.045-4.915 2.517-7zm39.448 7v-5h-2v5h-14v-5.195c1.24.589 3.19 1.195 6 1.195 1.506 0 2.74-.572 3.568-1.653 1.657-2.164 1.363-5.896.973-8.181l4.824 1.974c4.935 2.018 8.227 6.605 8.6 11.86z"/></svg>